<svg width="33" height="33" viewBox="0 0 33 33" fill="none" xmlns="http://www.w3.org/2000/svg">
<path fill-rule="evenodd" clip-rule="evenodd" d="M0.726562 16.6805C0.726562 24.6403 6.5155 31.2332 14.1537 32.6001L14.2486 32.5224C14.2437 32.5215 14.2388 32.5206 14.2339 32.5197V21.183H10.2138V16.6805H14.2339V13.1428C14.2339 9.12274 16.8068 6.87149 20.5053 6.87149C21.6309 6.87149 22.9173 7.03229 24.043 7.19309V11.2936H21.9525C20.0229 11.2936 19.5405 12.2584 19.5405 13.5448V16.6805H23.8018L23.0781 21.183H19.5405V32.5197C19.4915 32.5286 19.4426 32.5372 19.3937 32.5456L19.4602 32.6001C27.0984 31.2332 32.8873 24.6403 32.8873 16.6805C32.8873 7.83627 25.6512 0.600098 16.8069 0.600098C7.96273 0.600098 0.726562 7.83627 0.726562 16.6805Z" fill="white"/>
</svg>
