<svg width="33" height="33" viewBox="0 0 33 33" fill="none" xmlns="http://www.w3.org/2000/svg">
<path d="M16.8877 0.600098C12.5424 0.600098 11.9975 0.618532 10.2909 0.696366C8.58789 0.774057 7.42481 1.04457 6.40706 1.44003C5.35491 1.84892 4.46263 2.39605 3.57316 3.28552C2.68364 4.17499 2.13652 5.06736 1.72767 6.11951C1.33212 7.13721 1.0617 8.30029 0.983916 10.0033C0.906082 11.7099 0.887695 12.2548 0.887695 16.6001C0.887695 20.9454 0.906082 21.4903 0.983916 23.1969C1.0617 24.8999 1.33212 26.063 1.72767 27.0807C2.13657 28.1328 2.68369 29.0251 3.57316 29.9147C4.46268 30.8041 5.35491 31.3513 6.40706 31.7602C7.42481 32.1556 8.58789 32.4261 10.2909 32.5038C11.9975 32.5817 12.5424 32.6001 16.8877 32.6001C21.233 32.6001 21.7779 32.5817 23.4845 32.5038C25.1875 32.4261 26.3506 32.1556 27.3683 31.7602C28.4204 31.3513 29.3127 30.8041 30.2023 29.9147C31.0917 29.0251 31.6389 28.1328 32.0478 27.0807C32.4432 26.063 32.7137 24.8999 32.7914 23.1969C32.8693 21.4903 32.8877 20.9454 32.8877 16.6001C32.8877 12.2548 32.8693 11.7099 32.7914 10.0033C32.7137 8.30029 32.4432 7.13721 32.0478 6.11951C31.6389 5.06736 31.0917 4.17499 30.2023 3.28552C29.3127 2.39605 28.4204 1.84892 27.3683 1.44003C26.3506 1.04457 25.1875 0.774057 23.4845 0.696366C21.7779 0.618532 21.233 0.600098 16.8877 0.600098ZM16.8877 3.48296C21.1599 3.48296 21.6659 3.4993 23.3531 3.57627C24.9131 3.64739 25.7603 3.90805 26.324 4.12716C27.0709 4.41744 27.6039 4.76413 28.1637 5.32402C28.7237 5.88391 29.0703 6.41693 29.3606 7.16374C29.5797 7.72754 29.8404 8.57476 29.9115 10.1347C29.9885 11.8219 30.0048 12.3279 30.0048 16.6001C30.0048 20.8723 29.9885 21.3783 29.9115 23.0655C29.8404 24.6255 29.5797 25.4727 29.3606 26.0364C29.0703 26.7833 28.7237 27.3163 28.1637 27.8761C27.6039 28.4361 27.0709 28.7827 26.3241 29.073C25.7603 29.2921 24.913 29.5528 23.3531 29.6239C21.6662 29.7009 21.1602 29.7172 16.8877 29.7172C12.6152 29.7172 12.1093 29.7009 10.4223 29.6239C8.86231 29.5528 8.01513 29.2921 7.45139 29.073C6.70448 28.7827 6.1715 28.4361 5.61166 27.8761C5.05177 27.3163 4.70504 26.7833 4.41476 26.0365C4.19564 25.4727 3.93504 24.6254 3.86387 23.0655C3.7869 21.3783 3.77056 20.8723 3.77056 16.6001C3.77056 12.3279 3.7869 11.8219 3.86387 10.1347C3.93504 8.57471 4.19564 7.72754 4.41476 7.16379C4.70504 6.41688 5.05177 5.88391 5.61161 5.32406C6.1715 4.76413 6.70453 4.41744 7.45134 4.12716C8.01513 3.90805 8.86235 3.64739 10.4223 3.57627C12.1095 3.4993 12.6156 3.48296 16.8877 3.48296Z" fill="white"/>
<path d="M16.8881 21.9336C13.9425 21.9336 11.5547 19.5458 11.5547 16.6003C11.5547 13.6547 13.9425 11.2669 16.8881 11.2669C19.8336 11.2669 22.2214 13.6547 22.2214 16.6003C22.2214 19.5458 19.8336 21.9336 16.8881 21.9336ZM16.8881 8.38406C12.3504 8.38406 8.67188 12.0626 8.67188 16.6003C8.67188 21.138 12.3504 24.8165 16.8881 24.8165C21.4258 24.8165 25.1043 21.138 25.1043 16.6003C25.1043 12.0626 21.4258 8.38406 16.8881 8.38406ZM27.349 8.05944C27.349 9.11987 26.4893 9.97942 25.4289 9.97942C24.3686 9.97942 23.5089 9.11987 23.5089 8.05944C23.5089 6.99906 24.3686 6.1394 25.4289 6.1394C26.4893 6.1394 27.349 6.99906 27.349 8.05944Z" fill="white"/>
</svg>
