<svg id="圖層_1" data-name="圖層 1" xmlns="http://www.w3.org/2000/svg" viewBox="0 0 33 33"><defs><style>.cls-1{fill:#ceb96e;}</style></defs><path class="cls-1" d="M16.89.6c-4.35,0-4.89,0-6.6.1a11.4,11.4,0,0,0-3.88.74A7.82,7.82,0,0,0,3.57,3.29,7.76,7.76,0,0,0,1.73,6.12,11.67,11.67,0,0,0,1,10C.91,11.71.89,12.25.89,16.6s0,4.89.09,6.6a11.67,11.67,0,0,0,.75,3.88,7.76,7.76,0,0,0,1.84,2.83,7.82,7.82,0,0,0,2.84,1.85,11.4,11.4,0,0,0,3.88.74c1.71.08,2.25.1,6.6.1s4.89,0,6.59-.1a11.46,11.46,0,0,0,3.89-.74,7.87,7.87,0,0,0,2.83-1.85,7.79,7.79,0,0,0,1.85-2.83,12,12,0,0,0,.74-3.88c.08-1.71.1-2.25.1-6.6s0-4.89-.1-6.6a12,12,0,0,0-.74-3.88A7.79,7.79,0,0,0,30.2,3.29a7.87,7.87,0,0,0-2.83-1.85A11.46,11.46,0,0,0,23.48.7C21.78.62,21.23.6,16.89.6Zm0,2.88c4.27,0,4.78,0,6.46.1a8.78,8.78,0,0,1,3,.55,4.91,4.91,0,0,1,1.84,1.19,5,5,0,0,1,1.2,1.84,8.84,8.84,0,0,1,.55,3c.08,1.69.09,2.2.09,6.47s0,4.78-.09,6.47a8.84,8.84,0,0,1-.55,3,5,5,0,0,1-1.2,1.84,4.91,4.91,0,0,1-1.84,1.19,8.78,8.78,0,0,1-3,.55c-1.68.08-2.19.1-6.46.1s-4.78,0-6.47-.1a8.84,8.84,0,0,1-3-.55,4.91,4.91,0,0,1-1.84-1.19A5.15,5.15,0,0,1,4.41,26a9.39,9.39,0,0,1-.55-3c-.07-1.69-.09-2.2-.09-6.47s0-4.78.09-6.47a9.39,9.39,0,0,1,.55-3,5.15,5.15,0,0,1,1.2-1.84A4.91,4.91,0,0,1,7.45,4.13a8.84,8.84,0,0,1,3-.55C12.11,3.5,12.62,3.48,16.89,3.48Z"/><path class="cls-1" d="M16.89,21.93a5.33,5.33,0,1,1,5.33-5.33A5.33,5.33,0,0,1,16.89,21.93Zm0-13.55A8.22,8.22,0,1,0,25.1,16.6,8.22,8.22,0,0,0,16.89,8.38Zm10.46-.32a1.92,1.92,0,1,1-1.92-1.92A1.92,1.92,0,0,1,27.35,8.06Z"/></svg>