<svg id="圖層_1" data-name="圖層 1" xmlns="http://www.w3.org/2000/svg" viewBox="0 0 34 33"><defs><style>.cls-1{fill:#ceb96e;}</style></defs><path class="cls-1" d="M33.67,13h0v-.08h0l0-.32,0-.22v-.06h0A12.51,12.51,0,0,0,30.37,6,16.43,16.43,0,0,0,24,1.77,19.3,19.3,0,0,0,17.3.6,18.77,18.77,0,0,0,8.52,2.73c-5,2.68-8,7.61-7.59,12.56a13,13,0,0,0,2.9,7.05A15.69,15.69,0,0,0,10,26.85a23.67,23.67,0,0,0,4.58,1.23l.18,0c.44.08.56.2.59.25a.6.6,0,0,1,0,.35l-.06.26a5.14,5.14,0,0,0-.21,2.19,1.53,1.53,0,0,0,1.55,1.43h0a5.83,5.83,0,0,0,2.58-1l.09-.06c1.6-.93,3.1-2,4.24-2.81a36.8,36.8,0,0,0,7.4-6.45A12.67,12.67,0,0,0,33.67,13ZM11.12,18H8.29a.77.77,0,0,1-.78-.77v-6a.78.78,0,1,1,1.55,0v5.17h2.06a.78.78,0,0,1,.78.78A.77.77,0,0,1,11.12,18Zm3-.79a.78.78,0,0,1-1.55,0v-6a.78.78,0,1,1,1.55,0Zm7,0a.76.76,0,0,1-.53.73.67.67,0,0,1-.24,0,.76.76,0,0,1-.63-.32l-2.8-3.85v3.4a.77.77,0,0,1-.77.77.78.78,0,0,1-.78-.77V11.39a.78.78,0,0,1,1.41-.46l2.79,3.85V11.22a.78.78,0,1,1,1.55,0Zm5.65.65H22.9a.78.78,0,0,1-.77-.78V11.09a.77.77,0,0,1,.77-.77h3.73a.77.77,0,0,1,.77.77.78.78,0,0,1-.77.78H23.68v1.42h2.39a.78.78,0,0,1,.78.78.77.77,0,0,1-.78.77H23.68v1.43h3.06a.78.78,0,1,1,0,1.55Z"/></svg>