<svg width="34" height="33" viewBox="0 0 34 33" fill="none" xmlns="http://www.w3.org/2000/svg">
<path d="M33.674 12.952L33.6743 12.9519L33.6641 12.8677C33.664 12.8662 33.6639 12.8651 33.6637 12.8637C33.6636 12.8625 33.6635 12.8614 33.6632 12.8601L33.6251 12.5434C33.6175 12.4798 33.6087 12.4073 33.5987 12.3246L33.5908 12.2588L33.5745 12.2608C33.1736 9.98101 32.0725 7.81748 30.367 5.97013C28.6695 4.13165 26.464 2.68007 23.9892 1.7723C21.8688 0.994525 19.6189 0.600098 17.3023 0.600098C14.1749 0.600098 11.1375 1.33564 8.51867 2.72717C3.46869 5.41036 0.490377 10.3423 0.930575 15.292C1.15843 17.8533 2.16184 20.2913 3.83242 22.3428C5.40481 24.2737 7.53188 25.8319 9.98355 26.8489C11.491 27.4742 12.9815 27.7689 14.5596 28.0809L14.7444 28.1174C15.1789 28.2034 15.2957 28.3216 15.3259 28.3683C15.3816 28.4552 15.3525 28.6265 15.3301 28.7208C15.3095 28.8078 15.2882 28.8945 15.2669 28.9814C15.0975 29.6724 14.9223 30.387 15.0599 31.1749C15.2182 32.0806 15.7837 32.6 16.6116 32.6001H16.6118C17.5023 32.6001 18.5158 32.0028 19.1864 31.6075L19.2759 31.5549C20.8758 30.6153 22.383 29.5555 23.5173 28.7372C25.9995 26.9464 28.8129 24.9165 30.9221 22.2905C33.0461 19.6456 34.0466 16.247 33.674 12.952ZM11.1216 17.9629H8.28649C7.85804 17.9629 7.51071 17.6155 7.51071 17.1871V11.2362C7.51071 10.8078 7.85804 10.4604 8.28649 10.4604C8.71494 10.4604 9.06226 10.8078 9.06226 11.2362V16.4113H11.1215C11.55 16.4113 11.8973 16.7586 11.8973 17.1871C11.8974 17.6155 11.5501 17.9629 11.1216 17.9629ZM14.0792 17.166C14.0792 17.5945 13.7319 17.9418 13.3034 17.9418C12.875 17.9418 12.5277 17.5945 12.5277 17.166V11.2152C12.5277 10.7867 12.875 10.4394 13.3034 10.4394C13.7319 10.4394 14.0792 10.7867 14.0792 11.2152V17.166ZM21.0916 17.166C21.0916 17.5022 20.8751 17.8001 20.5554 17.9039C20.4765 17.9295 20.3957 17.9419 20.3159 17.9419C20.0722 17.9419 19.8368 17.8268 19.688 17.6219L16.8944 13.7743V17.1661C16.8944 17.5946 16.5471 17.9419 16.1186 17.9419C15.6902 17.9419 15.3428 17.5946 15.3428 17.1661V11.3855C15.3428 11.0494 15.5593 10.7515 15.879 10.6476C16.1989 10.5439 16.5489 10.6576 16.7464 10.9297L19.54 14.7772V11.2152C19.54 10.7867 19.8873 10.4394 20.3158 10.4394C20.7442 10.4394 21.0916 10.7867 21.0916 11.2152V17.166ZM26.7444 17.8197H22.9049C22.4764 17.8197 22.1291 17.4723 22.1291 17.0439V14.0686V11.093C22.1291 10.6646 22.4764 10.3173 22.9049 10.3173H26.6253C27.0537 10.3173 27.4011 10.6646 27.4011 11.093C27.4011 11.5215 27.0537 11.8688 26.6253 11.8688H23.6807V13.2928H26.0703C26.4987 13.2928 26.846 13.6401 26.846 14.0686C26.846 14.497 26.4987 14.8443 26.0703 14.8443H23.6807V16.2681H26.7444C27.1729 16.2681 27.5202 16.6154 27.5202 17.0439C27.5202 17.4723 27.1729 17.8197 26.7444 17.8197Z" fill="white"/>
</svg>
