<svg width="46" height="33" viewBox="0 0 46 33" fill="none" xmlns="http://www.w3.org/2000/svg">
<path d="M22.8489 0.600098C22.8489 0.600098 8.55762 0.60011 4.97069 1.53216C3.05013 2.06878 1.46869 3.65024 0.932059 5.59905C2.03731e-05 9.18598 0 16.6142 0 16.6142C0 16.6142 2.03731e-05 24.0707 0.932059 27.6011C1.46869 29.5499 3.02188 31.1031 4.97069 31.6398C8.58587 32.6001 22.8489 32.6001 22.8489 32.6001C22.8489 32.6001 37.1686 32.6001 40.7555 31.668C42.7043 31.1314 44.2574 29.6064 44.7658 27.6294C45.7261 24.0707 45.7261 16.6425 45.7261 16.6425C45.7261 16.6425 45.7544 9.18598 44.7658 5.59905C44.2574 3.65024 42.7043 2.09706 40.7555 1.58867C37.1686 0.600142 22.8489 0.600098 22.8489 0.600098ZM18.3017 9.75115L30.1924 16.6142L18.3017 23.449V9.75115Z" fill="white"/>
</svg>
